<svg version="1.0" preserveAspectRatio="xMidYMid meet" viewBox="5.8117338 326.59199717760004 797.04 186.29999839" zoomAndPan="magnify" xmlns:xlink="http://www.w3.org/1999/xlink" xmlns="http://www.w3.org/2000/svg" style="max-height: 500px" width="797.04" height="186.29999839"><path fill-rule="nonzero" fill-opacity="1" d="M 55.648438 446.082031 L 55.648438 350.265625 L 62.882812 350.265625 L 62.882812 441.246094 C 62.882812 454.730469 60.070312 465.492188 54.441406 473.539062 C 51.625 477.660156 48.757812 481.105469 45.835938 483.875 C 42.921875 486.640625 39.359375 489.53125 35.136719 492.554688 L 31.960938 487.882812 C 47.753906 476.308594 55.648438 462.375 55.648438 446.082031 Z M 55.648438 446.082031" fill="#676767"/><path fill-rule="nonzero" fill-opacity="1" d="M 232.175781 447.667969 C 225.234375 455.859375 214.667969 459.953125 200.476562 459.953125 C 186.296875 459.953125 175.710938 455.835938 168.722656 447.597656 C 161.734375 439.347656 158.242188 428.074219 158.242188 413.785156 L 158.242188 350.265625 L 165.476562 350.265625 L 165.476562 413.785156 C 165.476562 440.34375 177.117188 453.621094 200.40625 453.621094 C 223.699219 453.621094 235.351562 440.34375 235.351562 413.785156 L 235.351562 350.265625 L 242.585938 350.265625 L 242.585938 413.785156 C 242.585938 428.175781 239.113281 439.46875 232.175781 447.667969 Z M 232.175781 447.667969" fill="#676767"/><path fill-rule="nonzero" fill-opacity="1" d="M 373.832031 436.265625 L 410.039062 350.265625 L 417.742188 350.265625 L 371.269531 459.050781 L 367.046875 459.050781 L 320.429688 350.265625 L 328.566406 350.265625 L 364.792969 435.976562 C 367.304688 442.113281 368.863281 446.332031 369.464844 448.640625 C 370.269531 445.429688 371.726562 441.308594 373.832031 436.265625 Z M 373.832031 436.265625" fill="#676767"/><path fill-rule="nonzero" fill-opacity="1" d="M 505.472656 443.824219 C 495.464844 433.0625 490.464844 419.832031 490.464844 404.136719 C 490.464844 388.4375 495.464844 375.242188 505.472656 364.535156 C 515.476562 353.816406 528.125 348.460938 543.414062 348.460938 C 558.699219 348.460938 571.371094 353.816406 581.425781 364.535156 C 591.496094 375.242188 596.527344 388.4375 596.527344 404.136719 C 596.527344 419.832031 591.496094 433.0625 581.425781 443.824219 C 571.371094 454.578125 558.699219 459.953125 543.414062 459.953125 C 528.125 459.953125 515.476562 454.578125 505.472656 443.824219 Z M 510.832031 369.207031 C 502.484375 378.617188 498.3125 390.257812 498.3125 404.136719 C 498.3125 418.015625 502.507812 429.679688 510.90625 439.132812 C 519.296875 448.589844 530.160156 453.316406 543.488281 453.316406 C 556.808594 453.316406 567.671875 448.589844 576.070312 439.132812 C 584.476562 429.679688 588.679688 418.015625 588.679688 404.136719 C 588.679688 390.257812 584.476562 378.617188 576.070312 369.207031 C 567.671875 359.804688 556.789062 355.097656 543.414062 355.097656 C 530.039062 355.097656 519.175781 359.804688 510.832031 369.207031 Z M 510.832031 369.207031" fill="#676767"/><path fill-rule="nonzero" fill-opacity="1" d="M 759.476562 447.667969 C 752.535156 455.859375 741.964844 459.953125 727.777344 459.953125 C 713.597656 459.953125 703.011719 455.835938 696.023438 447.597656 C 689.035156 439.347656 685.542969 428.074219 685.542969 413.785156 L 685.542969 350.265625 L 692.777344 350.265625 L 692.777344 413.785156 C 692.777344 440.34375 704.417969 453.621094 727.703125 453.621094 C 751 453.621094 762.648438 440.34375 762.648438 413.785156 L 762.648438 350.265625 L 769.882812 350.265625 L 769.882812 413.785156 C 769.882812 428.175781 766.410156 439.46875 759.476562 447.667969 Z M 759.476562 447.667969" fill="#c4a571"/></svg>