<svg xmlns="http://www.w3.org/2000/svg" xmlns:xlink="http://www.w3.org/1999/xlink" width="1080" zoomAndPan="magnify" viewBox="0 0 810 809.999993" height="1080" preserveAspectRatio="xMidYMid meet" version="1.0"><defs><g/></defs><g fill="#676767" fill-opacity="1"><g transform="translate(78.963796, 444.831256)"><g><path d="M 17.25 -10.453125 L 17.25 -93.4375 L 23.515625 -93.4375 L 23.515625 -14.640625 C 23.515625 -2.960938 21.078125 6.359375 16.203125 13.328125 C 13.765625 16.898438 11.28125 19.882812 8.75 22.28125 C 6.226562 24.675781 3.140625 27.179688 -0.515625 29.796875 L -3.265625 25.75 C 10.410156 15.726562 17.25 3.660156 17.25 -10.453125 Z M 17.25 -10.453125 "/></g></g></g><g fill="#676767" fill-opacity="1"><g transform="translate(168.864221, 444.831256)"><g><path d="M 80.234375 -9.078125 C 74.222656 -1.984375 65.070312 1.5625 52.78125 1.5625 C 40.5 1.5625 31.332031 -2.003906 25.28125 -9.140625 C 19.226562 -16.285156 16.203125 -26.046875 16.203125 -38.421875 L 16.203125 -93.4375 L 22.46875 -93.4375 L 22.46875 -38.421875 C 22.46875 -15.421875 32.550781 -3.921875 52.71875 -3.921875 C 72.894531 -3.921875 82.984375 -15.421875 82.984375 -38.421875 L 82.984375 -93.4375 L 89.25 -93.4375 L 89.25 -38.421875 C 89.25 -25.960938 86.242188 -16.179688 80.234375 -9.078125 Z M 80.234375 -9.078125 "/></g></g></g><g fill="#676767" fill-opacity="1"><g transform="translate(323.440969, 444.831256)"><g><path d="M 48.34375 -18.953125 L 79.703125 -93.4375 L 86.375 -93.4375 L 46.125 0.78125 L 42.46875 0.78125 L 2.09375 -93.4375 L 9.140625 -93.4375 L 40.515625 -19.203125 C 42.691406 -13.890625 44.039062 -10.234375 44.5625 -8.234375 C 45.257812 -11.015625 46.519531 -14.585938 48.34375 -18.953125 Z M 48.34375 -18.953125 "/></g></g></g><g fill="#676767" fill-opacity="1"><g transform="translate(461.032003, 444.831256)"><g><path d="M 24.765625 -12.40625 C 16.097656 -21.726562 11.765625 -33.1875 11.765625 -46.78125 C 11.765625 -60.375 16.097656 -71.804688 24.765625 -81.078125 C 33.429688 -90.359375 44.382812 -95 57.625 -95 C 70.863281 -95 81.835938 -90.359375 90.546875 -81.078125 C 99.265625 -71.804688 103.625 -60.375 103.625 -46.78125 C 103.625 -33.1875 99.265625 -21.726562 90.546875 -12.40625 C 81.835938 -3.09375 70.863281 1.5625 57.625 1.5625 C 44.382812 1.5625 33.429688 -3.09375 24.765625 -12.40625 Z M 29.40625 -77.03125 C 22.175781 -68.882812 18.5625 -58.800781 18.5625 -46.78125 C 18.5625 -34.757812 22.195312 -24.65625 29.46875 -16.46875 C 36.738281 -8.28125 46.144531 -4.1875 57.6875 -4.1875 C 69.226562 -4.1875 78.632812 -8.28125 85.90625 -16.46875 C 93.1875 -24.65625 96.828125 -34.757812 96.828125 -46.78125 C 96.828125 -58.800781 93.1875 -68.882812 85.90625 -77.03125 C 78.632812 -85.175781 69.207031 -89.25 57.625 -89.25 C 46.039062 -89.25 36.632812 -85.175781 29.40625 -77.03125 Z M 29.40625 -77.03125 "/></g></g></g><g fill="#c4a571" fill-opacity="1"><g transform="translate(625.547605, 444.831256)"><g><path d="M 80.234375 -9.078125 C 74.222656 -1.984375 65.070312 1.5625 52.78125 1.5625 C 40.5 1.5625 31.332031 -2.003906 25.28125 -9.140625 C 19.226562 -16.285156 16.203125 -26.046875 16.203125 -38.421875 L 16.203125 -93.4375 L 22.46875 -93.4375 L 22.46875 -38.421875 C 22.46875 -15.421875 32.550781 -3.921875 52.71875 -3.921875 C 72.894531 -3.921875 82.984375 -15.421875 82.984375 -38.421875 L 82.984375 -93.4375 L 89.25 -93.4375 L 89.25 -38.421875 C 89.25 -25.960938 86.242188 -16.179688 80.234375 -9.078125 Z M 80.234375 -9.078125 "/></g></g></g></svg>